# xmcd
#
# Track frame offsets: 
#        150
#        12896
#        25783
#        38225
#        52127
#        63659
#        74281
#        87773
#        100807
#        113448
#        126777
#        140050
#        152505
#        164712
#        178117
#        191680
#        204514
#        216693
#        229956
#        242423
#        255898
#        269241
#        282943
#        295308
#
# Disc length: 4107 seconds
#
# Revision: 0
# Processed by: cddbd v1.5.2PL0 Copyright (c) Steve Scherf et al.
# Submitted via: ExactAudioCopy v0.95b4
#
DISCID=6d100918
DTITLE=The Delmore Brothers - Delmore Brothers Volume 2 CD C
DYEAR=2007
DGENRE=Country
TTITLE0=Prisoner's Farewell
TTITLE1=Sweet, Sweet Thing
TTITLE2=The Fast Old Shovel
TTITLE3=Why Did You Leave Me Dear
TTITLE4=I Found an Angel
TTITLE5=Lonely Moon
TTITLE6=Midnight Special
TTITLE7=Be My Little Pet
TTITLE8=Remember I Feel Lonesome Too
TTITLE9=Fast Express 
TTITLE10=I'm Sorry I Caused You to Cry
TTITLE11=Hillbilly Boogie
TTITLE12=I'm Lonesome Without You
TTITLE13=Don't Forget Me
TTITLE14=She Left Me Standing On the Mountain
TTITLE15=Somebody Else's Darling
TTITLE16=Kentucky Mountain
TTITLE17=Midnight Train
TTITLE18=Going' Back to the Blue Ridge Mountains
TTITLE19=Rounder's Blues
TTITLE20=The Wrath of God
TTITLE21=Calling to That Other Shore
TTITLE22=Freight Train Boogie
TTITLE23=Shame On Me
EXTD=
EXTT0=
EXTT1=
EXTT2=
EXTT3=
EXTT4=
EXTT5=
EXTT6=
EXTT7=
EXTT8=
EXTT9=
EXTT10=
EXTT11=
EXTT12=
EXTT13=
EXTT14=
EXTT15=
EXTT16=
EXTT17=
EXTT18=
EXTT19=
EXTT20=
EXTT21=
EXTT22=
EXTT23=
PLAYORDER=
